<?xml version="1.0" encoding="utf-8"?>
<!-- Generator: Adobe Illustrator 18.0.0, SVG Export Plug-In . SVG Version: 6.00 Build 0)  -->
<!DOCTYPE svg PUBLIC "-//W3C//DTD SVG 1.1//EN" "http://www.w3.org/Graphics/SVG/1.1/DTD/svg11.dtd">
<svg version="1.1" id="Layer_1" xmlns="http://www.w3.org/2000/svg" xmlns:xlink="http://www.w3.org/1999/xlink" x="0px" y="0px"
	 viewBox="0 0 50 50" enable-background="new 0 0 50 50" xml:space="preserve">
<g>
	<path fill="#8E8E8E" d="M45.8,4.2c-4.1-4.1-10.8-4.1-14.9,0L3.6,31.5c-0.2,0.2-0.3,0.5-0.4,0.8l-2,15c-0.1,0.4,0.1,0.9,0.4,1.1
		c0.3,0.3,0.6,0.4,1,0.4c0.1,0,0.1,0,0.2,0l9-1.2c0.8-0.1,1.3-0.8,1.2-1.5c-0.1-0.8-0.8-1.3-1.5-1.2l-7.2,1l1.4-10.4l11,11
		c0.3,0.3,0.6,0.4,1,0.4c0.4,0,0.7-0.1,1-0.4l27.3-27.3c2-2,3.1-4.6,3.1-7.5S47.8,6.2,45.8,4.2z M31.4,7.6l4.6,4.6L11.1,37.1
		l-4.6-4.6L31.4,7.6z M17.5,43.5L13,39l24.9-24.9l4.5,4.5L17.5,43.5z M44.3,16.6l-11-11c1.4-1.1,3.1-1.8,5-1.8c2.1,0,4,0.8,5.5,2.3
		c1.5,1.5,2.3,3.4,2.3,5.5C46.1,13.5,45.5,15.2,44.3,16.6z"/>
</g>
</svg>
