<?xml version="1.0" encoding="utf-8"?>
<!-- Generator: Adobe Illustrator 18.0.0, SVG Export Plug-In . SVG Version: 6.00 Build 0)  -->
<!DOCTYPE svg PUBLIC "-//W3C//DTD SVG 1.1//EN" "http://www.w3.org/Graphics/SVG/1.1/DTD/svg11.dtd">
<svg version="1.1" id="Layer_1" xmlns="http://www.w3.org/2000/svg" xmlns:xlink="http://www.w3.org/1999/xlink" x="0px" y="0px"
	 viewBox="0 0 150 50" enable-background="new 0 0 150 50" xml:space="preserve">
<g>
	<path fill="#4367B1" d="M140.9,49.1H9.1c-2,0-3.7-1.6-3.7-3.7V4.5c0-2,1.6-3.7,3.7-3.7h131.8c2,0,3.7,1.6,3.7,3.7v40.9
		C144.6,47.5,142.9,49.1,140.9,49.1z"/>
	<path fill="#FFFFFF" d="M38.9,12.6H20.8c-1.8,0-3.3,1.5-3.3,3.3v18.2c0,1.8,1.5,3.3,3.3,3.3h9l0-8.9h-2.3c-0.3,0-0.5-0.2-0.5-0.5
		l0-2.9c0-0.3,0.2-0.5,0.5-0.5h2.3v-2.8c0-3.2,2-5,4.8-5h2.3c0.3,0,0.5,0.2,0.5,0.5v2.4c0,0.3-0.2,0.5-0.5,0.5l-1.4,0
		c-1.6,0-1.9,0.7-1.9,1.8v2.4H37c0.3,0,0.6,0.3,0.5,0.6l-0.3,2.9c0,0.3-0.3,0.5-0.5,0.5h-3.1l0,8.9h5.3c1.8,0,3.3-1.5,3.3-3.3V15.9
		C42.3,14.1,40.8,12.6,38.9,12.6z"/>
	<g>
		<g>
			<path fill="#FFFFFF" d="M60.9,28.1l3.3-0.3c0.2,1.1,0.6,1.9,1.2,2.4c0.6,0.5,1.4,0.8,2.5,0.8c1.1,0,1.9-0.2,2.5-0.7
				c0.6-0.5,0.8-1,0.8-1.6c0-0.4-0.1-0.7-0.4-1c-0.2-0.3-0.6-0.5-1.2-0.7c-0.4-0.1-1.3-0.4-2.7-0.7c-1.8-0.5-3.1-1-3.8-1.7
				c-1-0.9-1.5-2.1-1.5-3.4c0-0.9,0.2-1.7,0.7-2.4c0.5-0.7,1.2-1.3,2.1-1.7c0.9-0.4,2-0.6,3.3-0.6c2.1,0,3.7,0.5,4.8,1.4
				c1.1,0.9,1.6,2.2,1.7,3.7l-3.4,0.1c-0.1-0.9-0.5-1.5-0.9-1.9c-0.5-0.4-1.2-0.6-2.2-0.6c-1,0-1.8,0.2-2.3,0.6
				c-0.4,0.3-0.5,0.6-0.5,1c0,0.4,0.2,0.7,0.5,1c0.4,0.4,1.5,0.7,3.1,1.1s2.9,0.8,3.7,1.2s1.4,1,1.9,1.7c0.4,0.7,0.7,1.6,0.7,2.7
				c0,1-0.3,1.9-0.8,2.7c-0.5,0.8-1.3,1.5-2.3,1.9c-1,0.4-2.2,0.6-3.7,0.6c-2.1,0-3.8-0.5-4.9-1.5C61.8,31.4,61.1,30,60.9,28.1z"/>
			<path fill="#FFFFFF" d="M80.6,16.7v6.2c1-1.2,2.3-1.8,3.7-1.8c0.7,0,1.4,0.1,2,0.4c0.6,0.3,1,0.6,1.3,1.1s0.5,0.9,0.6,1.4
				c0.1,0.5,0.2,1.3,0.2,2.4v7.2h-3.2v-6.4c0-1.3-0.1-2.1-0.2-2.4c-0.1-0.3-0.3-0.6-0.6-0.8s-0.7-0.3-1.2-0.3c-0.5,0-1,0.1-1.4,0.4
				c-0.4,0.3-0.7,0.7-0.9,1.2c-0.2,0.5-0.3,1.3-0.3,2.3v6.1h-3.2V16.7H80.6z"/>
			<path fill="#FFFFFF" d="M94.2,25.1l-2.9-0.5c0.3-1.2,0.9-2.1,1.7-2.6s2-0.8,3.6-0.8c1.4,0,2.5,0.2,3.2,0.5s1.2,0.8,1.5,1.3
				s0.4,1.5,0.4,2.9l0,3.8c0,1.1,0.1,1.9,0.2,2.4c0.1,0.5,0.3,1.1,0.6,1.6h-3.2c-0.1-0.2-0.2-0.5-0.3-1c-0.1-0.2-0.1-0.3-0.1-0.4
				c-0.6,0.5-1.1,0.9-1.8,1.2c-0.6,0.3-1.3,0.4-2,0.4c-1.3,0-2.2-0.3-3-1c-0.7-0.7-1.1-1.5-1.1-2.6c0-0.7,0.2-1.3,0.5-1.8
				c0.3-0.5,0.8-1,1.4-1.2c0.6-0.3,1.4-0.5,2.6-0.8c1.5-0.3,2.6-0.5,3.1-0.8v-0.3c0-0.6-0.2-1.1-0.5-1.3c-0.3-0.3-0.9-0.4-1.7-0.4
				c-0.6,0-1,0.1-1.3,0.3C94.6,24.1,94.4,24.5,94.2,25.1z M98.5,27.7c-0.4,0.1-1.1,0.3-2,0.5c-0.9,0.2-1.5,0.4-1.8,0.6
				c-0.4,0.3-0.6,0.7-0.6,1.1c0,0.5,0.2,0.8,0.5,1.2c0.3,0.3,0.8,0.5,1.3,0.5c0.6,0,1.1-0.2,1.7-0.6c0.4-0.3,0.6-0.6,0.8-1.1
				c0.1-0.3,0.1-0.8,0.1-1.6V27.7z"/>
			<path fill="#FFFFFF" d="M107.9,33.6h-3.2V21.4h3v1.7c0.5-0.8,1-1.4,1.4-1.6s0.9-0.4,1.4-0.4c0.7,0,1.4,0.2,2.1,0.6l-1,2.8
				c-0.5-0.4-1-0.5-1.5-0.5c-0.5,0-0.8,0.1-1.1,0.4c-0.3,0.2-0.6,0.7-0.7,1.3c-0.2,0.7-0.3,2-0.3,4.1V33.6z"/>
			<path fill="#FFFFFF" d="M121.1,29.7l3.2,0.5c-0.4,1.2-1.1,2.1-2,2.7s-2,0.9-3.3,0.9c-2.1,0-3.7-0.7-4.7-2.1
				c-0.8-1.1-1.2-2.5-1.2-4.2c0-2,0.5-3.6,1.6-4.7c1.1-1.1,2.4-1.7,4-1.7c1.8,0,3.2,0.6,4.3,1.8s1.5,3,1.5,5.5h-8.1
				c0,1,0.3,1.7,0.8,2.2c0.5,0.5,1.1,0.8,1.9,0.8c0.5,0,0.9-0.1,1.3-0.4C120.6,30.8,120.9,30.3,121.1,29.7z M121.2,26.4
				c0-0.9-0.3-1.6-0.7-2.1c-0.5-0.5-1-0.7-1.7-0.7c-0.7,0-1.3,0.3-1.7,0.8c-0.5,0.5-0.7,1.2-0.7,2.1H121.2z"/>
		</g>
	</g>
</g>
</svg>
